<svg width="31" height="31" viewBox="0 0 31 31" fill="none" xmlns="http://www.w3.org/2000/svg">
<path d="M15.5 1.9375C16.7846 1.9375 18.0167 2.44782 18.925 3.3562C19.8334 4.26458 20.3438 5.49661 20.3438 6.78125V7.75H10.6562V6.78125C10.6562 5.49661 11.1666 4.26458 12.075 3.3562C12.9833 2.44782 14.2154 1.9375 15.5 1.9375ZM22.2812 7.75V6.78125C22.2812 4.98275 21.5668 3.25791 20.2951 1.98618C19.0233 0.714451 17.2985 0 15.5 0C13.7015 0 11.9767 0.714451 10.7049 1.98618C9.4332 3.25791 8.71875 4.98275 8.71875 6.78125V7.75H1.9375V27.125C1.9375 28.1527 2.34576 29.1383 3.07246 29.865C3.79916 30.5917 4.78479 31 5.8125 31H25.1875C26.2152 31 27.2008 30.5917 27.9275 29.865C28.6542 29.1383 29.0625 28.1527 29.0625 27.125V7.75H22.2812ZM3.875 9.6875H27.125V27.125C27.125 27.6389 26.9209 28.1317 26.5575 28.495C26.1942 28.8584 25.7014 29.0625 25.1875 29.0625H5.8125C5.29864 29.0625 4.80583 28.8584 4.44248 28.495C4.07913 28.1317 3.875 27.6389 3.875 27.125V9.6875Z" fill="white"/>
</svg>
