<svg width="54" height="20" viewBox="0 0 54 20" fill="none" xmlns="http://www.w3.org/2000/svg">
<path fill-rule="evenodd" clip-rule="evenodd" d="M6.81149 0.848653C3.35125 4.91227 0.0335383 9.95152 0.000270098 13.7182C-0.012687 15.1354 0.43976 16.3726 1.525 17.3097C3.08685 18.6594 4.80769 19.1353 6.52013 19.1381C9.02259 19.1416 11.5075 18.132 13.4532 17.3535C16.7299 16.0431 52.9513 0.313561 52.9513 0.313561C53.3008 0.138465 53.2353 -0.0797028 52.7979 0.0292066C52.6214 0.0733307 13.3653 10.7118 13.3653 10.7118C12.6217 10.9221 11.8534 11.0321 11.0807 11.0389C8.06377 11.0567 5.37921 9.38211 5.40092 5.85323C5.40932 4.47243 5.832 2.80727 6.81149 0.848653Z" fill="white"/>
</svg>
